<?xml version="1.0" encoding="UTF-8" standalone="no"?>
<!-- Created with Inkscape (http://www.inkscape.org/) -->

<svg
   xmlns:dc="http://purl.org/dc/elements/1.1/"
   xmlns:cc="http://creativecommons.org/ns#"
   xmlns:rdf="http://www.w3.org/1999/02/22-rdf-syntax-ns#"
   xmlns:svg="http://www.w3.org/2000/svg"
   xmlns="http://www.w3.org/2000/svg"
   xmlns:xlink="http://www.w3.org/1999/xlink"
   xmlns:sodipodi="http://sodipodi.sourceforge.net/DTD/sodipodi-0.dtd"
   xmlns:inkscape="http://www.inkscape.org/namespaces/inkscape"
   width="210mm"
   height="297mm"
   viewBox="0 0 210 297"
   version="1.1"
   id="svg1731"
   inkscape:version="0.92.4 (5da689c313, 2019-01-14)"
   sodipodi:docname="hospitalities-x-y-plot.svg">
  <defs
     id="defs1725">
    <marker
       inkscape:isstock="true"
       style="overflow:visible;"
       id="marker3182"
       refX="0.0"
       refY="0.0"
       orient="auto"
       inkscape:stockid="Arrow1Lend">
      <path
         transform="scale(0.8) rotate(180) translate(12.5,0)"
         style="fill-rule:evenodd;stroke:#000000;stroke-width:1pt;stroke-opacity:1;fill:#000000;fill-opacity:1"
         d="M 0.0,0.0 L 5.0,-5.0 L -12.5,0.0 L 5.0,5.0 L 0.0,0.0 z "
         id="path3180" />
    </marker>
    <inkscape:path-effect
       effect="bspline"
       id="path-effect3172"
       is_visible="true"
       weight="33.333333"
       steps="2"
       helper_size="0"
       apply_no_weight="true"
       apply_with_weight="true"
       only_selected="false" />
    <marker
       inkscape:stockid="Arrow1Lstart"
       orient="auto"
       refY="0.0"
       refX="0.0"
       id="marker3009"
       style="overflow:visible"
       inkscape:isstock="true">
      <path
         id="path3007"
         d="M 0.0,0.0 L 5.0,-5.0 L -12.5,0.0 L 5.0,5.0 L 0.0,0.0 z "
         style="fill-rule:evenodd;stroke:#0000f0;stroke-width:1pt;stroke-opacity:1;fill:#0000ff;fill-opacity:1"
         transform="scale(0.8) translate(12.5,0)" />
    </marker>
    <marker
       inkscape:stockid="Arrow1Lstart"
       orient="auto"
       refY="0.0"
       refX="0.0"
       id="Arrow1Lstart"
       style="overflow:visible"
       inkscape:isstock="true">
      <path
         id="path2699"
         d="M 0.0,0.0 L 5.0,-5.0 L -12.5,0.0 L 5.0,5.0 L 0.0,0.0 z "
         style="fill-rule:evenodd;stroke:#000000;stroke-width:1pt;stroke-opacity:1;fill:#000000;fill-opacity:1"
         transform="scale(0.8) translate(12.5,0)" />
    </marker>
    <marker
       inkscape:stockid="Arrow1Lend"
       orient="auto"
       refY="0.0"
       refX="0.0"
       id="Arrow1Lend"
       style="overflow:visible;"
       inkscape:isstock="true"
       inkscape:collect="always">
      <path
         id="path2702"
         d="M 0.0,0.0 L 5.0,-5.0 L -12.5,0.0 L 5.0,5.0 L 0.0,0.0 z "
         style="fill-rule:evenodd;stroke:#000000;stroke-width:1pt;stroke-opacity:1;fill:#000000;fill-opacity:1"
         transform="scale(0.8) rotate(180) translate(12.5,0)" />
    </marker>
    <g
       id="g1564">
      <symbol
         style="overflow:visible"
         id="lx-text1514-glyph0-0"
         overflow="visible">
        <path
           inkscape:connector-curvature="0"
           id="path1531"
           d=""
           style="stroke:none" />
      </symbol>
      <symbol
         style="overflow:visible"
         id="lx-text1514-glyph0-1"
         overflow="visible">
        <path
           inkscape:connector-curvature="0"
           id="path1534"
           d="M 3.296875,-3.34375 C 3.421875,-3.8125 3.5625,-4.3125 3.65625,-4.796875 3.78125,-5.46875 3.84375,-6.125 3.84375,-6.25 c 0,-0.5625 -0.546875,-0.5625 -0.65625,-0.5625 -0.765625,0 -1.4375,0.28125 -1.90625,0.609375 C 0.46875,-5.65625 0.203125,-5 0.203125,-4.9375 c 0,0.0625 0.078125,0.0625 0.109375,0.0625 0.078125,0 0.546875,-0.125 0.75,-0.5 0.265625,-0.5 0.5625,-0.890625 1.453125,-0.890625 C 2.9375,-6.265625 3,-5.984375 3,-5.828125 3,-5.8125 2.96875,-5.34375 2.84375,-4.65625 2.796875,-4.375 2.765625,-4.203125 2.5625,-3.34375 H 2.203125 c -0.28125,0.015625 -0.734375,0.328125 -0.734375,0.484375 0,0.0625 0,0.0625 0.21875,0.0625 h 0.71875 c -0.203125,0.703125 -0.484375,1.65625 -0.9375,2.875 C 1.375,0.3125 1.375,0.328125 1.375,0.34375 c 0,0.0625 0.078125,0.0625 0.09375,0.0625 0.140625,0 0.453125,-0.125 0.65625,-0.328125 C 2.171875,0.015625 2.1875,0 2.234375,-0.09375 2.578125,-0.984375 2.875,-1.875 3.140625,-2.796875 h 2.25 c 0.109375,0 0.296875,0 0.453125,-0.09375 -0.109375,0.421875 -0.515625,2.046875 -0.515625,2.828125 0,0.296875 0.171875,0.546875 0.59375,0.546875 1.328125,0 2.0625,-0.828125 2.0625,-1.140625 0,-0.0625 -0.046875,-0.078125 -0.09375,-0.078125 -0.078125,0 -0.609375,0.140625 -0.765625,0.53125 C 7.09375,-0.125 7.078125,-0.125 6.890625,-0.09375 6.78125,-0.0625 6.59375,-0.0625 6.578125,-0.0625 c -0.171875,0 -0.40625,-0.109375 -0.40625,-0.421875 0,-0.125 0.0625,-0.671875 0.09375,-0.890625 C 6.4375,-2.484375 6.921875,-4.359375 7.78125,-6.625 7.8125,-6.703125 7.8125,-6.71875 7.8125,-6.734375 7.8125,-6.8125 7.75,-6.8125 7.71875,-6.8125 c -0.15625,0 -0.4375,0.140625 -0.625,0.3125 -0.015625,0.015625 -0.078125,0.0625 -0.109375,0.15625 -0.40625,0.984375 -0.71875,1.984375 -1.015625,3 z m 0,0"
           style="stroke:none" />
      </symbol>
      <symbol
         style="overflow:visible"
         id="lx-text1514-glyph0-2"
         overflow="visible">
        <path
           inkscape:connector-curvature="0"
           id="path1537"
           d="M 8.3125,-2.296875 C 7.765625,-1.875 7.5,-1.46875 7.421875,-1.328125 c -0.453125,0.6875 -0.53125,1.3125 -0.53125,1.3125 0,0.125 0.125,0.125 0.203125,0.125 C 7.25,0.109375 7.265625,0.09375 7.3125,-0.09375 7.53125,-1.0625 8.125,-1.90625 9.25,-2.359375 9.375,-2.40625 9.40625,-2.421875 9.40625,-2.5 c 0,-0.0625 -0.0625,-0.09375 -0.078125,-0.109375 C 8.875,-2.765625 7.671875,-3.265625 7.296875,-4.9375 7.265625,-5.0625 7.25,-5.09375 7.09375,-5.09375 c -0.078125,0 -0.203125,0 -0.203125,0.125 0,0.015625 0.09375,0.640625 0.5,1.3125 0.203125,0.296875 0.5,0.640625 0.921875,0.96875 H 0.90625 c -0.171875,0 -0.359375,0 -0.359375,0.1875 0,0.203125 0.1875,0.203125 0.359375,0.203125 z m 0,0"
           style="stroke:none" />
      </symbol>
      <symbol
         style="overflow:visible"
         id="lx-text1514-glyph1-0"
         overflow="visible">
        <path
           inkscape:connector-curvature="0"
           id="path1540"
           d=""
           style="stroke:none" />
      </symbol>
      <symbol
         style="overflow:visible"
         id="lx-text1514-glyph1-1"
         overflow="visible">
        <path
           inkscape:connector-curvature="0"
           id="path1543"
           d="m 2.9375,-2.65625 c -0.140625,-0.234375 -0.375,-0.421875 -0.71875,-0.421875 -0.890625,0 -1.796875,0.984375 -1.796875,1.984375 0,0.6875 0.453125,1.15625 1.0625,1.15625 0.375,0 0.703125,-0.203125 0.984375,-0.484375 C 2.59375,0 3,0.0625 3.1875,0.0625 c 0.25,0 0.421875,-0.140625 0.546875,-0.359375 0.15625,-0.28125 0.25,-0.671875 0.25,-0.703125 0,-0.09375 -0.09375,-0.09375 -0.109375,-0.09375 -0.109375,0 -0.109375,0.03125 -0.15625,0.21875 C 3.625,-0.53125 3.5,-0.125 3.203125,-0.125 3.03125,-0.125 2.96875,-0.28125 2.96875,-0.46875 c 0,-0.109375 0.0625,-0.375 0.109375,-0.546875 0.046875,-0.1875 0.125,-0.46875 0.15625,-0.625 L 3.375,-2.171875 C 3.421875,-2.359375 3.5,-2.6875 3.5,-2.71875 3.5,-2.875 3.375,-2.9375 3.265625,-2.9375 c -0.125,0 -0.28125,0.078125 -0.328125,0.28125 z M 2.5,-0.875 C 2.453125,-0.671875 2.296875,-0.53125 2.140625,-0.40625 2.078125,-0.34375 1.796875,-0.125 1.5,-0.125 c -0.265625,0 -0.515625,-0.1875 -0.515625,-0.671875 0,-0.375 0.203125,-1.140625 0.375,-1.421875 0.3125,-0.5625 0.671875,-0.65625 0.859375,-0.65625 0.484375,0 0.625,0.53125 0.625,0.609375 0,0.015625 -0.015625,0.078125 -0.015625,0.09375 z m 0,0"
           style="stroke:none" />
      </symbol>
      <symbol
         style="overflow:visible"
         id="lx-text1514-glyph1-2"
         overflow="visible">
        <path
           inkscape:connector-curvature="0"
           id="path1546"
           d="m 1.84375,-4.625 c 0,-0.015625 0.03125,-0.109375 0.03125,-0.109375 0,-0.046875 -0.03125,-0.109375 -0.125,-0.109375 -0.140625,0 -0.71875,0.0625 -0.890625,0.078125 -0.046875,0 -0.15625,0.015625 -0.15625,0.15625 0,0.09375 0.109375,0.09375 0.1875,0.09375 0.328125,0 0.328125,0.0625 0.328125,0.109375 0,0.046875 -0.0625,0.328125 -0.109375,0.484375 l -0.15625,0.640625 c -0.0625,0.25 -0.4375,1.765625 -0.453125,1.859375 -0.046875,0.171875 -0.046875,0.265625 -0.046875,0.34375 0,0.703125 0.453125,1.140625 1.03125,1.140625 0.875,0 1.796875,-0.9375 1.796875,-1.96875 0,-0.8125 -0.5625,-1.171875 -1.046875,-1.171875 -0.359375,0 -0.671875,0.203125 -0.875,0.390625 z m -0.359375,4.5 c -0.328125,0 -0.53125,-0.296875 -0.53125,-0.71875 0,-0.25 0.0625,-0.484375 0.265625,-1.28125 C 1.25,-2.25 1.25,-2.265625 1.390625,-2.421875 1.65625,-2.71875 1.96875,-2.875 2.21875,-2.875 c 0.265625,0 0.5,0.203125 0.5,0.671875 0,0.28125 -0.140625,1 -0.359375,1.40625 C 2.1875,-0.453125 1.84375,-0.125 1.484375,-0.125 Z m 0,0"
           style="stroke:none" />
      </symbol>
      <symbol
         style="overflow:visible"
         id="lx-text1514-glyph2-0"
         overflow="visible">
        <path
           inkscape:connector-curvature="0"
           id="path1549"
           d=""
           style="stroke:none" />
      </symbol>
      <symbol
         style="overflow:visible"
         id="lx-text1514-glyph2-1"
         overflow="visible">
        <path
           inkscape:connector-curvature="0"
           id="path1552"
           d="M 7.8125,-1.75 V -1.953125 H 0.109375 V -1.75 Z m 0,0"
           style="stroke:none" />
      </symbol>
      <symbol
         style="overflow:visible"
         id="lx-text1514-glyph3-0"
         overflow="visible">
        <path
           inkscape:connector-curvature="0"
           id="path1555"
           d=""
           style="stroke:none" />
      </symbol>
      <symbol
         style="overflow:visible"
         id="lx-text1514-glyph3-1"
         overflow="visible">
        <path
           inkscape:connector-curvature="0"
           id="path1558"
           d="M 3.71875,-3.765625 C 3.53125,-4.140625 3.25,-4.40625 2.796875,-4.40625 c -1.15625,0 -2.390625,1.46875 -2.390625,2.921875 0,0.9375 0.546875,1.59375 1.3125,1.59375 0.203125,0 0.703125,-0.046875 1.296875,-0.75 0.078125,0.421875 0.4375,0.75 0.90625,0.75 0.359375,0 0.578125,-0.234375 0.75,-0.546875 0.15625,-0.359375 0.296875,-0.96875 0.296875,-0.984375 0,-0.109375 -0.09375,-0.109375 -0.125,-0.109375 -0.09375,0 -0.109375,0.046875 -0.140625,0.1875 -0.171875,0.640625 -0.34375,1.234375 -0.75,1.234375 -0.28125,0 -0.296875,-0.265625 -0.296875,-0.453125 0,-0.21875 0.015625,-0.3125 0.125,-0.75 C 3.890625,-1.71875 3.90625,-1.828125 4,-2.203125 L 4.359375,-3.59375 c 0.0625,-0.28125 0.0625,-0.296875 0.0625,-0.34375 0,-0.171875 -0.109375,-0.265625 -0.28125,-0.265625 -0.25,0 -0.390625,0.21875 -0.421875,0.4375 z M 3.078125,-1.1875 C 3.015625,-1 3.015625,-0.984375 2.875,-0.8125 2.4375,-0.265625 2.03125,-0.109375 1.75,-0.109375 c -0.5,0 -0.640625,-0.546875 -0.640625,-0.9375 0,-0.5 0.3125,-1.71875 0.546875,-2.1875 0.3125,-0.578125 0.75,-0.953125 1.15625,-0.953125 0.640625,0 0.78125,0.8125 0.78125,0.875 0,0.0625 -0.015625,0.125 -0.03125,0.171875 z m 0,0"
           style="stroke:none" />
      </symbol>
      <symbol
         style="overflow:visible"
         id="lx-text1514-glyph3-2"
         overflow="visible">
        <path
           inkscape:connector-curvature="0"
           id="path1561"
           d="m 2.375,-6.8125 c 0,0 0,-0.109375 -0.125,-0.109375 -0.21875,0 -0.953125,0.078125 -1.21875,0.109375 -0.078125,0 -0.1875,0.015625 -0.1875,0.1875 0,0.125 0.09375,0.125 0.25,0.125 0.46875,0 0.484375,0.0625 0.484375,0.171875 0,0.0625 -0.078125,0.40625 -0.125,0.609375 l -0.828125,3.25 c -0.109375,0.5 -0.15625,0.671875 -0.15625,1.015625 0,0.9375 0.53125,1.5625 1.265625,1.5625 1.171875,0 2.40625,-1.484375 2.40625,-2.921875 0,-0.90625 -0.53125,-1.59375 -1.328125,-1.59375 -0.453125,0 -0.875,0.296875 -1.171875,0.59375 z M 1.453125,-3.046875 C 1.5,-3.265625 1.5,-3.28125 1.59375,-3.390625 2.078125,-4.03125 2.53125,-4.1875 2.796875,-4.1875 c 0.359375,0 0.625,0.296875 0.625,0.9375 0,0.59375 -0.328125,1.734375 -0.515625,2.109375 -0.328125,0.671875 -0.78125,1.03125 -1.171875,1.03125 -0.34375,0 -0.671875,-0.265625 -0.671875,-1 0,-0.203125 0,-0.390625 0.15625,-1.015625 z m 0,0"
           style="stroke:none" />
      </symbol>
    </g>
    <defs
       id="defs1566">
      <g
         id="g2491">
        <symbol
           overflow="visible"
           id="symbol2449"
           style="overflow:visible">
          <path
             style="stroke:none"
             d=""
             id="path2447"
             inkscape:connector-curvature="0" />
        </symbol>
        <symbol
           overflow="visible"
           id="symbol2453"
           style="overflow:visible">
          <path
             style="stroke:none"
             d="M 3.296875,-3.34375 C 3.421875,-3.8125 3.5625,-4.3125 3.65625,-4.796875 3.78125,-5.46875 3.84375,-6.125 3.84375,-6.25 c 0,-0.5625 -0.546875,-0.5625 -0.65625,-0.5625 -0.765625,0 -1.4375,0.28125 -1.90625,0.609375 C 0.46875,-5.65625 0.203125,-5 0.203125,-4.9375 c 0,0.0625 0.078125,0.0625 0.109375,0.0625 0.078125,0 0.546875,-0.125 0.75,-0.5 0.265625,-0.5 0.5625,-0.890625 1.453125,-0.890625 C 2.9375,-6.265625 3,-5.984375 3,-5.828125 3,-5.8125 2.96875,-5.34375 2.84375,-4.65625 2.796875,-4.375 2.765625,-4.203125 2.5625,-3.34375 H 2.203125 c -0.28125,0.015625 -0.734375,0.328125 -0.734375,0.484375 0,0.0625 0,0.0625 0.21875,0.0625 h 0.71875 c -0.203125,0.703125 -0.484375,1.65625 -0.9375,2.875 C 1.375,0.3125 1.375,0.328125 1.375,0.34375 c 0,0.0625 0.078125,0.0625 0.09375,0.0625 0.140625,0 0.453125,-0.125 0.65625,-0.328125 C 2.171875,0.015625 2.1875,0 2.234375,-0.09375 2.578125,-0.984375 2.875,-1.875 3.140625,-2.796875 h 2.25 c 0.109375,0 0.296875,0 0.453125,-0.09375 -0.109375,0.421875 -0.515625,2.046875 -0.515625,2.828125 0,0.296875 0.171875,0.546875 0.59375,0.546875 1.328125,0 2.0625,-0.828125 2.0625,-1.140625 0,-0.0625 -0.046875,-0.078125 -0.09375,-0.078125 -0.078125,0 -0.609375,0.140625 -0.765625,0.53125 C 7.09375,-0.125 7.078125,-0.125 6.890625,-0.09375 6.78125,-0.0625 6.59375,-0.0625 6.578125,-0.0625 c -0.171875,0 -0.40625,-0.109375 -0.40625,-0.421875 0,-0.125 0.0625,-0.671875 0.09375,-0.890625 C 6.4375,-2.484375 6.921875,-4.359375 7.78125,-6.625 7.8125,-6.703125 7.8125,-6.71875 7.8125,-6.734375 7.8125,-6.8125 7.75,-6.8125 7.71875,-6.8125 c -0.15625,0 -0.4375,0.140625 -0.625,0.3125 -0.015625,0.015625 -0.078125,0.0625 -0.109375,0.15625 -0.40625,0.984375 -0.71875,1.984375 -1.015625,3 z m 0,0"
             id="path2451"
             inkscape:connector-curvature="0" />
        </symbol>
        <symbol
           overflow="visible"
           id="symbol2457"
           style="overflow:visible">
          <path
             style="stroke:none"
             d="M 8.3125,-2.296875 C 7.765625,-1.875 7.5,-1.46875 7.421875,-1.328125 c -0.453125,0.6875 -0.53125,1.3125 -0.53125,1.3125 0,0.125 0.125,0.125 0.203125,0.125 C 7.25,0.109375 7.265625,0.09375 7.3125,-0.09375 7.53125,-1.0625 8.125,-1.90625 9.25,-2.359375 9.375,-2.40625 9.40625,-2.421875 9.40625,-2.5 c 0,-0.0625 -0.0625,-0.09375 -0.078125,-0.109375 C 8.875,-2.765625 7.671875,-3.265625 7.296875,-4.9375 7.265625,-5.0625 7.25,-5.09375 7.09375,-5.09375 c -0.078125,0 -0.203125,0 -0.203125,0.125 0,0.015625 0.09375,0.640625 0.5,1.3125 0.203125,0.296875 0.5,0.640625 0.921875,0.96875 H 0.90625 c -0.171875,0 -0.359375,0 -0.359375,0.1875 0,0.203125 0.1875,0.203125 0.359375,0.203125 z m 0,0"
             id="path2455"
             inkscape:connector-curvature="0" />
        </symbol>
        <symbol
           overflow="visible"
           id="symbol2461"
           style="overflow:visible">
          <path
             style="stroke:none"
             d=""
             id="path2459"
             inkscape:connector-curvature="0" />
        </symbol>
        <symbol
           overflow="visible"
           id="symbol2465"
           style="overflow:visible">
          <path
             style="stroke:none"
             d="m 2.9375,-2.65625 c -0.140625,-0.234375 -0.375,-0.421875 -0.71875,-0.421875 -0.890625,0 -1.796875,0.984375 -1.796875,1.984375 0,0.6875 0.453125,1.15625 1.0625,1.15625 0.375,0 0.703125,-0.203125 0.984375,-0.484375 C 2.59375,0 3,0.0625 3.1875,0.0625 c 0.25,0 0.421875,-0.140625 0.546875,-0.359375 0.15625,-0.28125 0.25,-0.671875 0.25,-0.703125 0,-0.09375 -0.09375,-0.09375 -0.109375,-0.09375 -0.109375,0 -0.109375,0.03125 -0.15625,0.21875 C 3.625,-0.53125 3.5,-0.125 3.203125,-0.125 3.03125,-0.125 2.96875,-0.28125 2.96875,-0.46875 c 0,-0.109375 0.0625,-0.375 0.109375,-0.546875 0.046875,-0.1875 0.125,-0.46875 0.15625,-0.625 L 3.375,-2.171875 C 3.421875,-2.359375 3.5,-2.6875 3.5,-2.71875 3.5,-2.875 3.375,-2.9375 3.265625,-2.9375 c -0.125,0 -0.28125,0.078125 -0.328125,0.28125 z M 2.5,-0.875 C 2.453125,-0.671875 2.296875,-0.53125 2.140625,-0.40625 2.078125,-0.34375 1.796875,-0.125 1.5,-0.125 c -0.265625,0 -0.515625,-0.1875 -0.515625,-0.671875 0,-0.375 0.203125,-1.140625 0.375,-1.421875 0.3125,-0.5625 0.671875,-0.65625 0.859375,-0.65625 0.484375,0 0.625,0.53125 0.625,0.609375 0,0.015625 -0.015625,0.078125 -0.015625,0.09375 z m 0,0"
             id="path2463"
             inkscape:connector-curvature="0" />
        </symbol>
        <symbol
           overflow="visible"
           id="symbol2469"
           style="overflow:visible">
          <path
             style="stroke:none"
             d="m 1.84375,-4.625 c 0,-0.015625 0.03125,-0.109375 0.03125,-0.109375 0,-0.046875 -0.03125,-0.109375 -0.125,-0.109375 -0.140625,0 -0.71875,0.0625 -0.890625,0.078125 -0.046875,0 -0.15625,0.015625 -0.15625,0.15625 0,0.09375 0.109375,0.09375 0.1875,0.09375 0.328125,0 0.328125,0.0625 0.328125,0.109375 0,0.046875 -0.0625,0.328125 -0.109375,0.484375 l -0.15625,0.640625 c -0.0625,0.25 -0.4375,1.765625 -0.453125,1.859375 -0.046875,0.171875 -0.046875,0.265625 -0.046875,0.34375 0,0.703125 0.453125,1.140625 1.03125,1.140625 0.875,0 1.796875,-0.9375 1.796875,-1.96875 0,-0.8125 -0.5625,-1.171875 -1.046875,-1.171875 -0.359375,0 -0.671875,0.203125 -0.875,0.390625 z m -0.359375,4.5 c -0.328125,0 -0.53125,-0.296875 -0.53125,-0.71875 0,-0.25 0.0625,-0.484375 0.265625,-1.28125 C 1.25,-2.25 1.25,-2.265625 1.390625,-2.421875 1.65625,-2.71875 1.96875,-2.875 2.21875,-2.875 c 0.265625,0 0.5,0.203125 0.5,0.671875 0,0.28125 -0.140625,1 -0.359375,1.40625 C 2.1875,-0.453125 1.84375,-0.125 1.484375,-0.125 Z m 0,0"
             id="path2467"
             inkscape:connector-curvature="0" />
        </symbol>
        <symbol
           overflow="visible"
           id="symbol2473"
           style="overflow:visible">
          <path
             style="stroke:none"
             d=""
             id="path2471"
             inkscape:connector-curvature="0" />
        </symbol>
        <symbol
           overflow="visible"
           id="symbol2477"
           style="overflow:visible">
          <path
             style="stroke:none"
             d="M 7.8125,-1.75 V -1.953125 H 0.109375 V -1.75 Z m 0,0"
             id="path2475"
             inkscape:connector-curvature="0" />
        </symbol>
        <symbol
           overflow="visible"
           id="symbol2481"
           style="overflow:visible">
          <path
             style="stroke:none"
             d=""
             id="path2479"
             inkscape:connector-curvature="0" />
        </symbol>
        <symbol
           overflow="visible"
           id="symbol2485"
           style="overflow:visible">
          <path
             style="stroke:none"
             d="M 3.71875,-3.765625 C 3.53125,-4.140625 3.25,-4.40625 2.796875,-4.40625 c -1.15625,0 -2.390625,1.46875 -2.390625,2.921875 0,0.9375 0.546875,1.59375 1.3125,1.59375 0.203125,0 0.703125,-0.046875 1.296875,-0.75 0.078125,0.421875 0.4375,0.75 0.90625,0.75 0.359375,0 0.578125,-0.234375 0.75,-0.546875 0.15625,-0.359375 0.296875,-0.96875 0.296875,-0.984375 0,-0.109375 -0.09375,-0.109375 -0.125,-0.109375 -0.09375,0 -0.109375,0.046875 -0.140625,0.1875 -0.171875,0.640625 -0.34375,1.234375 -0.75,1.234375 -0.28125,0 -0.296875,-0.265625 -0.296875,-0.453125 0,-0.21875 0.015625,-0.3125 0.125,-0.75 C 3.890625,-1.71875 3.90625,-1.828125 4,-2.203125 L 4.359375,-3.59375 c 0.0625,-0.28125 0.0625,-0.296875 0.0625,-0.34375 0,-0.171875 -0.109375,-0.265625 -0.28125,-0.265625 -0.25,0 -0.390625,0.21875 -0.421875,0.4375 z M 3.078125,-1.1875 C 3.015625,-1 3.015625,-0.984375 2.875,-0.8125 2.4375,-0.265625 2.03125,-0.109375 1.75,-0.109375 c -0.5,0 -0.640625,-0.546875 -0.640625,-0.9375 0,-0.5 0.3125,-1.71875 0.546875,-2.1875 0.3125,-0.578125 0.75,-0.953125 1.15625,-0.953125 0.640625,0 0.78125,0.8125 0.78125,0.875 0,0.0625 -0.015625,0.125 -0.03125,0.171875 z m 0,0"
             id="path2483"
             inkscape:connector-curvature="0" />
        </symbol>
        <symbol
           overflow="visible"
           id="symbol2489"
           style="overflow:visible">
          <path
             style="stroke:none"
             d="m 2.375,-6.8125 c 0,0 0,-0.109375 -0.125,-0.109375 -0.21875,0 -0.953125,0.078125 -1.21875,0.109375 -0.078125,0 -0.1875,0.015625 -0.1875,0.1875 0,0.125 0.09375,0.125 0.25,0.125 0.46875,0 0.484375,0.0625 0.484375,0.171875 0,0.0625 -0.078125,0.40625 -0.125,0.609375 l -0.828125,3.25 c -0.109375,0.5 -0.15625,0.671875 -0.15625,1.015625 0,0.9375 0.53125,1.5625 1.265625,1.5625 1.171875,0 2.40625,-1.484375 2.40625,-2.921875 0,-0.90625 -0.53125,-1.59375 -1.328125,-1.59375 -0.453125,0 -0.875,0.296875 -1.171875,0.59375 z M 1.453125,-3.046875 C 1.5,-3.265625 1.5,-3.28125 1.59375,-3.390625 2.078125,-4.03125 2.53125,-4.1875 2.796875,-4.1875 c 0.359375,0 0.625,0.296875 0.625,0.9375 0,0.59375 -0.328125,1.734375 -0.515625,2.109375 -0.328125,0.671875 -0.78125,1.03125 -1.171875,1.03125 -0.34375,0 -0.671875,-0.265625 -0.671875,-1 0,-0.203125 0,-0.390625 0.15625,-1.015625 z m 0,0"
             id="path2487"
             inkscape:connector-curvature="0" />
        </symbol>
      </g>
    </defs>
  </defs>
  <sodipodi:namedview
     id="base"
     pagecolor="#ffffff"
     bordercolor="#666666"
     borderopacity="1.0"
     inkscape:pageopacity="0.0"
     inkscape:pageshadow="2"
     inkscape:zoom="0.77382812"
     inkscape:cx="283.10944"
     inkscape:cy="655.67332"
     inkscape:document-units="mm"
     inkscape:current-layer="layer1"
     showgrid="false"
     inkscape:window-width="1239"
     inkscape:window-height="739"
     inkscape:window-x="118"
     inkscape:window-y="-9"
     inkscape:window-maximized="1" />
  <metadata
     id="metadata1728">
    <rdf:RDF>
      <cc:Work
         rdf:about="">
        <dc:format>image/svg+xml</dc:format>
        <dc:type
           rdf:resource="http://purl.org/dc/dcmitype/StillImage" />
        <dc:title></dc:title>
      </cc:Work>
    </rdf:RDF>
  </metadata>
  <g
     inkscape:label="Layer 1"
     inkscape:groupmode="layer"
     id="layer1">
    <g
       id="g2660"
       transform="translate(42.025805,-51.59388)">
      <g
         transform="matrix(1.0560469,0,0,1.0209708,118.01907,156.4839)"
         style="fill:#000000;fill-opacity:1"
         id="g1570">
        <use
           xlink:href="#lx-text1514-glyph0-1"
           x="0"
           y="0"
           id="use1568"
           width="100%"
           height="100%" />
      </g>
      <g
         transform="matrix(1.0560469,0,0,1.0209708,118.01907,156.4839)"
         style="fill:#000000;fill-opacity:1"
         id="g1574">
        <use
           xlink:href="#lx-text1514-glyph1-1"
           x="8.5100002"
           y="-5.125"
           id="use1572"
           width="100%"
           height="100%" />
      </g>
      <path
         style="fill:none;stroke:#000000;stroke-width:0.35200429;stroke-linecap:butt;stroke-linejoin:miter;stroke-miterlimit:10;stroke-opacity:1"
         d="m 127.00758,152.46176 h 4.56245"
         id="path1576"
         inkscape:connector-curvature="0" />
      <g
         transform="matrix(1.0560469,0,0,1.0209708,118.01907,156.4839)"
         style="fill:#000000;fill-opacity:1"
         id="g1580">
        <use
           xlink:href="#lx-text1514-glyph2-1"
           x="12.831"
           y="-5.125"
           id="use1578"
           width="100%"
           height="100%" />
      </g>
      <g
         transform="matrix(1.0560469,0,0,1.0209708,118.01907,156.4839)"
         style="fill:#000000;fill-opacity:1"
         id="g1584">
        <use
           xlink:href="#lx-text1514-glyph1-2"
           x="20.774"
           y="-5.125"
           id="use1582"
           width="100%"
           height="100%" />
      </g>
      <path
         style="fill:none;stroke:#000000;stroke-width:0.35200429;stroke-linecap:butt;stroke-linejoin:miter;stroke-miterlimit:10;stroke-opacity:1"
         d="m 139.95653,152.46176 h 3.70029"
         id="path1586"
         inkscape:connector-curvature="0" />
      <g
         transform="matrix(1.0560469,0,0,1.0209708,118.01907,156.4839)"
         style="fill:#000000;fill-opacity:1"
         id="g1590">
        <use
           xlink:href="#lx-text1514-glyph1-1"
           x="8.4139996"
           y="1.165"
           id="use1588"
           width="100%"
           height="100%" />
      </g>
      <path
         style="fill:none;stroke:#000000;stroke-width:0.35200429;stroke-linecap:butt;stroke-linejoin:miter;stroke-miterlimit:10;stroke-opacity:1"
         d="m 126.90445,158.8827 h 5.09048"
         id="path1592"
         inkscape:connector-curvature="0" />
    </g>
    <g
       id="g2675"
       transform="translate(-96.179173,-133.53195)">
      <g
         transform="matrix(1.0560469,0,0,1.0209708,118.01907,156.4839)"
         style="fill:#000000;fill-opacity:1"
         id="g1596">
        <use
           xlink:href="#lx-text1514-glyph0-1"
           x="28.096001"
           y="0"
           id="use1594"
           width="100%"
           height="100%" />
      </g>
      <g
         transform="matrix(1.0560469,0,0,1.0209708,118.01907,156.4839)"
         style="fill:#000000;fill-opacity:1"
         id="g1600">
        <use
           xlink:href="#lx-text1514-glyph1-1"
           x="36.605999"
           y="-5.125"
           id="use1598"
           width="100%"
           height="100%" />
      </g>
      <path
         style="fill:none;stroke:#000000;stroke-width:0.35200429;stroke-linecap:butt;stroke-linejoin:miter;stroke-miterlimit:10;stroke-opacity:1"
         d="m 156.67589,152.46176 h 4.56246"
         id="path1602"
         inkscape:connector-curvature="0" />
      <g
         transform="matrix(1.0560469,0,0,1.0209708,118.01907,156.4839)"
         style="fill:#000000;fill-opacity:1"
         id="g1606">
        <use
           xlink:href="#lx-text1514-glyph2-1"
           x="40.928001"
           y="-5.125"
           id="use1604"
           width="100%"
           height="100%" />
      </g>
      <g
         transform="matrix(1.0560469,0,0,1.0209708,118.01907,156.4839)"
         style="fill:#000000;fill-opacity:1"
         id="g1610">
        <use
           xlink:href="#lx-text1514-glyph1-2"
           x="48.869999"
           y="-5.125"
           id="use1608"
           width="100%"
           height="100%" />
      </g>
      <path
         style="fill:none;stroke:#000000;stroke-width:0.35200429;stroke-linecap:butt;stroke-linejoin:miter;stroke-miterlimit:10;stroke-opacity:1"
         d="m 169.62897,152.46176 h 3.70029"
         id="path1612"
         inkscape:connector-curvature="0" />
      <g
         transform="matrix(1.0560469,0,0,1.0209708,118.01907,156.4839)"
         style="fill:#000000;fill-opacity:1"
         id="g1616">
        <use
           xlink:href="#lx-text1514-glyph1-2"
           x="36.509998"
           y="3.0050001"
           id="use1614"
           width="100%"
           height="100%" />
      </g>
      <path
         style="fill:none;stroke:#000000;stroke-width:0.35200429;stroke-linecap:butt;stroke-linejoin:miter;stroke-miterlimit:10;stroke-opacity:1"
         d="m 156.57689,160.76113 h 4.22419"
         id="path1618"
         inkscape:connector-curvature="0" />
    </g>
    <g
       id="g2685"
       transform="matrix(0.81520516,0,0,0.74705347,-106.25589,-44.30972)"
       style="fill:#0000ff">
      <g
         transform="matrix(1.0560469,0,0,1.0209708,118.01907,156.4839)"
         style="fill:#0000ff;fill-opacity:1"
         id="g1622">
        <use
           xlink:href="#lx-text1514-glyph3-1"
           x="56.193001"
           y="0"
           id="use1620"
           width="100%"
           height="100%"
           style="fill:#0000ff" />
      </g>
      <path
         style="fill:#0000ff;stroke:#000000;stroke-width:0.41326758;stroke-linecap:butt;stroke-linejoin:miter;stroke-miterlimit:10;stroke-opacity:1"
         d="m 177.35956,157.9056 h 5.56488"
         id="path1624"
         inkscape:connector-curvature="0" />
      <g
         transform="matrix(1.0560469,0,0,1.0209708,118.01907,156.4839)"
         style="fill:#0000ff;fill-opacity:1"
         id="g1628">
        <use
           xlink:href="#lx-text1514-glyph0-2"
           x="64.225998"
           y="0"
           id="use1626"
           width="100%"
           height="100%"
           style="fill:#0000ff" />
      </g>
      <g
         transform="matrix(1.0560469,0,0,1.0209708,118.01907,156.4839)"
         style="fill:#0000ff;fill-opacity:1"
         id="g1632">
        <use
           xlink:href="#lx-text1514-glyph3-2"
           x="76.956001"
           y="0"
           id="use1630"
           width="100%"
           height="100%"
           style="fill:#0000ff" />
      </g>
      <path
         style="fill:#0000ff;stroke:#000000;stroke-width:0.41326758;stroke-linecap:butt;stroke-linejoin:miter;stroke-miterlimit:10;stroke-opacity:1"
         d="M 199.28905,157.9056 H 203.802"
         id="path1634"
         inkscape:connector-curvature="0" />
    </g>
    <g
       id="g2695"
       transform="matrix(0.81520516,0,0,0.74705347,-66.999493,-4.4549901)"
       style="fill:#ff0000;stroke:#f6000b;stroke-opacity:1">
      <g
         transform="matrix(1.0560469,0,0,1.0209708,118.01907,156.4839)"
         style="fill:#ff0000;fill-opacity:1;stroke:#f6000b;stroke-opacity:1"
         id="g1638">
        <use
           xlink:href="#lx-text1514-glyph3-2"
           x="84.553001"
           y="0"
           id="use1636"
           width="100%"
           height="100%"
           style="fill:#ff0000;stroke:#f6000b;stroke-opacity:1" />
      </g>
      <path
         style="fill:#ff0000;stroke:#f6000b;stroke-width:0.41326758;stroke-linecap:butt;stroke-linejoin:miter;stroke-miterlimit:10;stroke-opacity:1"
         d="m 207.31252,157.9056 h 4.51295"
         id="path1640"
         inkscape:connector-curvature="0" />
      <g
         transform="matrix(1.0560469,0,0,1.0209708,118.01907,156.4839)"
         style="fill:#ff0000;fill-opacity:1;stroke:#f6000b;stroke-opacity:1"
         id="g1644">
        <use
           xlink:href="#lx-text1514-glyph0-2"
           x="91.596001"
           y="0"
           id="use1642"
           width="100%"
           height="100%"
           style="fill:#ff0000;stroke:#f6000b;stroke-opacity:1" />
      </g>
      <g
         transform="matrix(1.0560469,0,0,1.0209708,118.01907,156.4839)"
         style="fill:#ff0000;fill-opacity:1;stroke:#f6000b;stroke-opacity:1"
         id="g1648">
        <use
           xlink:href="#lx-text1514-glyph3-1"
           x="104.326"
           y="0"
           id="use1646"
           width="100%"
           height="100%"
           style="fill:#ff0000;stroke:#f6000b;stroke-opacity:1" />
      </g>
      <path
         style="fill:#ff0000;stroke:#f6000b;stroke-width:0.41326758;stroke-linecap:butt;stroke-linejoin:miter;stroke-miterlimit:10;stroke-opacity:1"
         d="m 228.1942,157.9056 h 5.56075"
         id="path1650"
         inkscape:connector-curvature="0" />
    </g>
    <path
       style="fill:none;stroke:#000000;stroke-width:0.465;stroke-linecap:butt;stroke-linejoin:miter;stroke-opacity:1;marker-start:url(#Arrow1Lstart);marker-end:url(#Arrow1Lend);stroke-miterlimit:4;stroke-dasharray:none"
       d="M 64.621907,27.229178 V 101.08279 H 158.30658"
       id="path2697"
       inkscape:connector-curvature="0" />
    <rect
       style="opacity:1;fill:#0000ff;fill-opacity:1;stroke:#0000f0;stroke-width:0.42466938;stroke-miterlimit:4;stroke-dasharray:none;stroke-dashoffset:0;stroke-opacity:1"
       id="rect3150"
       width="1.3676594"
       height="58.176041"
       x="64.800323"
       y="42.564823"
       ry="4.700789e-07" />
    <rect
       style="opacity:1;fill:#ff0000;fill-opacity:1;stroke:#ec000b;stroke-width:0.46499997;stroke-miterlimit:4;stroke-dasharray:none;stroke-dashoffset:0;stroke-opacity:1"
       id="rect3164"
       width="84.452965"
       height="1.7095708"
       x="64.62191"
       y="101.08279"
       ry="4.7007993e-07" />
    <text
       xml:space="preserve"
       style="font-style:normal;font-variant:normal;font-weight:normal;font-stretch:normal;font-size:6.3499999px;line-height:1.25;font-family:sans-serif;-inkscape-font-specification:'sans-serif, Normal';font-variant-ligatures:normal;font-variant-caps:normal;font-variant-numeric:normal;font-feature-settings:normal;text-align:start;letter-spacing:0px;word-spacing:0px;writing-mode:lr-tb;text-anchor:start;fill:#000000;fill-opacity:1;stroke:none;stroke-width:0.26458332"
       x="43.081272"
       y="116.81087"
       id="text3168"><tspan
         sodipodi:role="line"
         id="tspan3166"
         x="43.081272"
         y="116.81087"
         style="stroke-width:0.26458332">No arrow</tspan></text>
    <path
       style="fill:none;stroke:#000000;stroke-width:0.365;stroke-linecap:butt;stroke-linejoin:miter;stroke-opacity:1;stroke-miterlimit:4;stroke-dasharray:none;marker-end:url(#marker3182)"
       d="m 51.971058,110.31449 c 0.569941,-2.16578 1.139798,-4.33124 3.248113,-5.58476 2.108314,-1.25352 5.755931,-1.59548 9.402738,-1.93737"
       id="path3170"
       inkscape:connector-curvature="0"
       inkscape:path-effect="#path-effect3172"
       inkscape:original-d="m 51.971058,110.31449 c 0.570122,-2.16573 1.139981,-4.33119 1.709574,-6.49639 3.646831,-0.34213 7.294448,-0.68409 10.941277,-1.02574" />
  </g>
</svg>
